<?xml version="1.0" encoding="UTF-8" standalone="no"?>
<!DOCTYPE svg PUBLIC "-//W3C//DTD SVG 1.1//EN"
 "http://www.w3.org/Graphics/SVG/1.1/DTD/svg11.dtd">
<!-- Generated by graphviz version 2.40.1 (20161225.0304)
 -->
<!-- Title: mydatabase Pages: 1 -->
<svg width="1245pt" height="586pt"
 viewBox="0.00 0.00 1244.50 586.00" xmlns="http://www.w3.org/2000/svg" xmlns:xlink="http://www.w3.org/1999/xlink">
<g id="graph0" class="graph" transform="scale(1 1) rotate(0) translate(4 582)">
<title>mydatabase</title>
<polygon fill="#ffffff" stroke="transparent" points="-4,4 -4,-582 1240.5,-582 1240.5,4 -4,4"/>
<!-- public.posts -->
<g id="node1" class="node">
<title>public.posts</title>
<polygon fill="#efefef" stroke="transparent" points="43,-499.5 43,-534.5 333,-534.5 333,-499.5 43,-499.5"/>
<polygon fill="none" stroke="#000000" points="43,-499.5 43,-534.5 333,-534.5 333,-499.5 43,-499.5"/>
<text text-anchor="start" x="91.8612" y="-512.3" font-family="Arial Bold" font-size="18.00" fill="#000000">public.posts</text>
<text text-anchor="start" x="186.885" y="-512.3" font-family="Arial" font-size="14.00" fill="#000000"> </text>
<text text-anchor="start" x="190.7756" y="-512.3" font-family="Arial" font-size="14.00" fill="#666666">[BASE TABLE]</text>
<polygon fill="none" stroke="#000000" points="43,-469.5 43,-499.5 333,-499.5 333,-469.5 43,-469.5"/>
<text text-anchor="start" x="50" y="-480.9" font-family="Arial" font-size="14.00" fill="#000000">id </text>
<text text-anchor="start" x="64.7798" y="-480.9" font-family="Arial" font-size="14.00" fill="#666666">[bigint]</text>
<polygon fill="none" stroke="#000000" points="43,-439.5 43,-469.5 333,-469.5 333,-439.5 43,-439.5"/>
<text text-anchor="start" x="50" y="-450.9" font-family="Arial" font-size="14.00" fill="#000000">content </text>
<text text-anchor="start" x="99.8022" y="-450.9" font-family="Arial" font-size="14.00" fill="#666666">[text]</text>
<polygon fill="none" stroke="#000000" points="43,-409.5 43,-439.5 333,-439.5 333,-409.5 43,-409.5"/>
<text text-anchor="start" x="50" y="-420.9" font-family="Arial" font-size="14.00" fill="#000000">user_id </text>
<text text-anchor="start" x="99.7882" y="-420.9" font-family="Arial" font-size="14.00" fill="#666666">[bigint]</text>
<polygon fill="none" stroke="#000000" points="43,-379.5 43,-409.5 333,-409.5 333,-379.5 43,-379.5"/>
<text text-anchor="start" x="50" y="-390.9" font-family="Arial" font-size="14.00" fill="#000000">created_at </text>
<text text-anchor="start" x="120.028" y="-390.9" font-family="Arial" font-size="14.00" fill="#666666">[timestamp(6) without time zone]</text>
<polygon fill="none" stroke="#000000" points="43,-349.5 43,-379.5 333,-379.5 333,-349.5 43,-349.5"/>
<text text-anchor="start" x="49.9117" y="-360.9" font-family="Arial" font-size="14.00" fill="#000000">updated_at </text>
<text text-anchor="start" x="123.8443" y="-360.9" font-family="Arial" font-size="14.00" fill="#666666">[timestamp(6) without time zone]</text>
</g>
<!-- public.users -->
<g id="node2" class="node">
<title>public.users</title>
<polygon fill="#efefef" stroke="transparent" points="43,-192.5 43,-227.5 333,-227.5 333,-192.5 43,-192.5"/>
<polygon fill="none" stroke="#000000" points="43,-192.5 43,-227.5 333,-227.5 333,-192.5 43,-192.5"/>
<text text-anchor="start" x="91.3662" y="-205.3" font-family="Arial Bold" font-size="18.00" fill="#000000">public.users</text>
<text text-anchor="start" x="187.38" y="-205.3" font-family="Arial" font-size="14.00" fill="#000000"> </text>
<text text-anchor="start" x="191.2706" y="-205.3" font-family="Arial" font-size="14.00" fill="#666666">[BASE TABLE]</text>
<polygon fill="none" stroke="#000000" points="43,-162.5 43,-192.5 333,-192.5 333,-162.5 43,-162.5"/>
<text text-anchor="start" x="50" y="-173.9" font-family="Arial" font-size="14.00" fill="#000000">id </text>
<text text-anchor="start" x="64.7798" y="-173.9" font-family="Arial" font-size="14.00" fill="#666666">[bigint]</text>
<polygon fill="none" stroke="#000000" points="43,-132.5 43,-162.5 333,-162.5 333,-132.5 43,-132.5"/>
<text text-anchor="start" x="50" y="-143.9" font-family="Arial" font-size="14.00" fill="#000000">name </text>
<text text-anchor="start" x="88.899" y="-143.9" font-family="Arial" font-size="14.00" fill="#666666">[varchar]</text>
<polygon fill="none" stroke="#000000" points="43,-102.5 43,-132.5 333,-132.5 333,-102.5 43,-102.5"/>
<text text-anchor="start" x="50" y="-113.9" font-family="Arial" font-size="14.00" fill="#000000">email </text>
<text text-anchor="start" x="87.3296" y="-113.9" font-family="Arial" font-size="14.00" fill="#666666">[varchar]</text>
<polygon fill="none" stroke="#000000" points="43,-72.5 43,-102.5 333,-102.5 333,-72.5 43,-72.5"/>
<text text-anchor="start" x="50" y="-83.9" font-family="Arial" font-size="14.00" fill="#000000">created_at </text>
<text text-anchor="start" x="120.028" y="-83.9" font-family="Arial" font-size="14.00" fill="#666666">[timestamp(6) without time zone]</text>
<polygon fill="none" stroke="#000000" points="43,-42.5 43,-72.5 333,-72.5 333,-42.5 43,-42.5"/>
<text text-anchor="start" x="49.9117" y="-53.9" font-family="Arial" font-size="14.00" fill="#000000">updated_at </text>
<text text-anchor="start" x="123.8443" y="-53.9" font-family="Arial" font-size="14.00" fill="#666666">[timestamp(6) without time zone]</text>
</g>
<!-- public.posts&#45;&gt;public.users -->
<g id="edge1" class="edge">
<title>public.posts:user_id&#45;&gt;public.users:id</title>
<path fill="none" stroke="#000000" d="M342.6484,-421.7261C387.6745,-394.5898 384.4583,-177.5 333,-177.5"/>
<polygon fill="#000000" stroke="#000000" points="342.6107,-421.7369 331.7566,-420.1752 337.8053,-423.1184 333,-424.5 333,-424.5 333,-424.5 337.8053,-423.1184 334.2434,-428.8248 342.6107,-421.7369 342.6107,-421.7369"/>
<text text-anchor="start" x="221.8345" y="-408.5" font-family="Arial" font-size="10.00" fill="#000000">FOREIGN KEY (user_id) REFERENCES users(id)</text>
</g>
<!-- public.schema_migrations -->
<g id="node3" class="node">
<title>public.schema_migrations</title>
<polygon fill="#efefef" stroke="transparent" points="438,-439.5 438,-474.5 757,-474.5 757,-439.5 438,-439.5"/>
<polygon fill="none" stroke="#000000" points="438,-439.5 438,-474.5 757,-474.5 757,-439.5 438,-439.5"/>
<text text-anchor="start" x="444.8601" y="-452.3" font-family="Arial Bold" font-size="18.00" fill="#000000">public.schema_migrations</text>
<text text-anchor="start" x="652.8861" y="-452.3" font-family="Arial" font-size="14.00" fill="#000000"> </text>
<text text-anchor="start" x="656.7767" y="-452.3" font-family="Arial" font-size="14.00" fill="#666666">[BASE TABLE]</text>
<polygon fill="none" stroke="#000000" points="438,-409.5 438,-439.5 757,-439.5 757,-409.5 438,-409.5"/>
<text text-anchor="start" x="445" y="-420.9" font-family="Arial" font-size="14.00" fill="#000000">version </text>
<text text-anchor="start" x="494.0056" y="-420.9" font-family="Arial" font-size="14.00" fill="#666666">[varchar]</text>
</g>
<!-- public.ar_internal_metadata -->
<g id="node4" class="node">
<title>public.ar_internal_metadata</title>
<polygon fill="#efefef" stroke="transparent" points="861,-484.5 861,-519.5 1194,-519.5 1194,-484.5 861,-484.5"/>
<polygon fill="none" stroke="#000000" points="861,-484.5 861,-519.5 1194,-519.5 1194,-484.5 861,-484.5"/>
<text text-anchor="start" x="867.8455" y="-497.3" font-family="Arial Bold" font-size="18.00" fill="#000000">public.ar_internal_metadata</text>
<text text-anchor="start" x="1089.9007" y="-497.3" font-family="Arial" font-size="14.00" fill="#000000"> </text>
<text text-anchor="start" x="1093.7913" y="-497.3" font-family="Arial" font-size="14.00" fill="#666666">[BASE TABLE]</text>
<polygon fill="none" stroke="#000000" points="861,-454.5 861,-484.5 1194,-484.5 1194,-454.5 861,-454.5"/>
<text text-anchor="start" x="868" y="-465.9" font-family="Arial" font-size="14.00" fill="#000000">key </text>
<text text-anchor="start" x="893.6732" y="-465.9" font-family="Arial" font-size="14.00" fill="#666666">[varchar]</text>
<polygon fill="none" stroke="#000000" points="861,-424.5 861,-454.5 1194,-454.5 1194,-424.5 861,-424.5"/>
<text text-anchor="start" x="868" y="-435.9" font-family="Arial" font-size="14.00" fill="#000000">value </text>
<text text-anchor="start" x="905.345" y="-435.9" font-family="Arial" font-size="14.00" fill="#666666">[varchar]</text>
<polygon fill="none" stroke="#000000" points="861,-394.5 861,-424.5 1194,-424.5 1194,-394.5 861,-394.5"/>
<text text-anchor="start" x="868" y="-405.9" font-family="Arial" font-size="14.00" fill="#000000">created_at </text>
<text text-anchor="start" x="938.028" y="-405.9" font-family="Arial" font-size="14.00" fill="#666666">[timestamp(6) without time zone]</text>
<polygon fill="none" stroke="#000000" points="861,-364.5 861,-394.5 1194,-394.5 1194,-364.5 861,-364.5"/>
<text text-anchor="start" x="868" y="-375.9" font-family="Arial" font-size="14.00" fill="#000000">updated_at </text>
<text text-anchor="start" x="941.9326" y="-375.9" font-family="Arial" font-size="14.00" fill="#666666">[timestamp(6) without time zone]</text>
</g>
</g>
</svg>
