<?xml version="1.0" encoding="UTF-8" standalone="no"?>
<!DOCTYPE svg PUBLIC "-//W3C//DTD SVG 1.1//EN"
 "http://www.w3.org/Graphics/SVG/1.1/DTD/svg11.dtd">
<!-- Generated by graphviz version 2.40.1 (20161225.0304)
 -->
<!-- Title: public.users Pages: 1 -->
<svg width="581pt" height="592pt"
 viewBox="0.00 0.00 581.00 592.00" xmlns="http://www.w3.org/2000/svg" xmlns:xlink="http://www.w3.org/1999/xlink">
<g id="graph0" class="graph" transform="scale(1 1) rotate(0) translate(4 588)">
<title>public.users</title>
<polygon fill="#ffffff" stroke="transparent" points="-4,4 -4,-588 577,-588 577,4 -4,4"/>
<!-- public.users -->
<g id="node1" class="node">
<title>public.users</title>
<polygon fill="#efefef" stroke="transparent" points="46,-195.5 46,-230.5 336,-230.5 336,-195.5 46,-195.5"/>
<polygon fill="none" stroke="#000000" points="46,-195.5 46,-230.5 336,-230.5 336,-195.5 46,-195.5"/>
<text text-anchor="start" x="94.3662" y="-208.3" font-family="Arial Bold" font-size="18.00" fill="#000000">public.users</text>
<text text-anchor="start" x="190.38" y="-208.3" font-family="Arial" font-size="14.00" fill="#000000"> </text>
<text text-anchor="start" x="194.2706" y="-208.3" font-family="Arial" font-size="14.00" fill="#666666">[BASE TABLE]</text>
<polygon fill="none" stroke="#000000" points="46,-165.5 46,-195.5 336,-195.5 336,-165.5 46,-165.5"/>
<text text-anchor="start" x="53" y="-176.9" font-family="Arial" font-size="14.00" fill="#000000">id </text>
<text text-anchor="start" x="67.7798" y="-176.9" font-family="Arial" font-size="14.00" fill="#666666">[bigint]</text>
<polygon fill="none" stroke="#000000" points="46,-135.5 46,-165.5 336,-165.5 336,-135.5 46,-135.5"/>
<text text-anchor="start" x="53" y="-146.9" font-family="Arial" font-size="14.00" fill="#000000">name </text>
<text text-anchor="start" x="91.899" y="-146.9" font-family="Arial" font-size="14.00" fill="#666666">[varchar]</text>
<polygon fill="none" stroke="#000000" points="46,-105.5 46,-135.5 336,-135.5 336,-105.5 46,-105.5"/>
<text text-anchor="start" x="53" y="-116.9" font-family="Arial" font-size="14.00" fill="#000000">email </text>
<text text-anchor="start" x="90.3296" y="-116.9" font-family="Arial" font-size="14.00" fill="#666666">[varchar]</text>
<polygon fill="none" stroke="#000000" points="46,-75.5 46,-105.5 336,-105.5 336,-75.5 46,-75.5"/>
<text text-anchor="start" x="53" y="-86.9" font-family="Arial" font-size="14.00" fill="#000000">created_at </text>
<text text-anchor="start" x="123.028" y="-86.9" font-family="Arial" font-size="14.00" fill="#666666">[timestamp(6) without time zone]</text>
<polygon fill="none" stroke="#000000" points="46,-45.5 46,-75.5 336,-75.5 336,-45.5 46,-45.5"/>
<text text-anchor="start" x="52.9117" y="-56.9" font-family="Arial" font-size="14.00" fill="#000000">updated_at </text>
<text text-anchor="start" x="126.8443" y="-56.9" font-family="Arial" font-size="14.00" fill="#666666">[timestamp(6) without time zone]</text>
<polygon fill="none" stroke="#000000" stroke-width="3" points="44.5,-44.5 44.5,-232.5 337.5,-232.5 337.5,-44.5 44.5,-44.5"/>
</g>
<!-- public.posts -->
<g id="node2" class="node">
<title>public.posts</title>
<polygon fill="#efefef" stroke="transparent" points="46,-505.5 46,-540.5 336,-540.5 336,-505.5 46,-505.5"/>
<polygon fill="none" stroke="#000000" points="46,-505.5 46,-540.5 336,-540.5 336,-505.5 46,-505.5"/>
<text text-anchor="start" x="94.8612" y="-518.3" font-family="Arial Bold" font-size="18.00" fill="#000000">public.posts</text>
<text text-anchor="start" x="189.885" y="-518.3" font-family="Arial" font-size="14.00" fill="#000000"> </text>
<text text-anchor="start" x="193.7756" y="-518.3" font-family="Arial" font-size="14.00" fill="#666666">[BASE TABLE]</text>
<polygon fill="none" stroke="#000000" points="46,-475.5 46,-505.5 336,-505.5 336,-475.5 46,-475.5"/>
<text text-anchor="start" x="53" y="-486.9" font-family="Arial" font-size="14.00" fill="#000000">id </text>
<text text-anchor="start" x="67.7798" y="-486.9" font-family="Arial" font-size="14.00" fill="#666666">[bigint]</text>
<polygon fill="none" stroke="#000000" points="46,-445.5 46,-475.5 336,-475.5 336,-445.5 46,-445.5"/>
<text text-anchor="start" x="53" y="-456.9" font-family="Arial" font-size="14.00" fill="#000000">content </text>
<text text-anchor="start" x="102.8022" y="-456.9" font-family="Arial" font-size="14.00" fill="#666666">[text]</text>
<polygon fill="none" stroke="#000000" points="46,-415.5 46,-445.5 336,-445.5 336,-415.5 46,-415.5"/>
<text text-anchor="start" x="53" y="-426.9" font-family="Arial" font-size="14.00" fill="#000000">user_id </text>
<text text-anchor="start" x="102.7882" y="-426.9" font-family="Arial" font-size="14.00" fill="#666666">[bigint]</text>
<polygon fill="none" stroke="#000000" points="46,-385.5 46,-415.5 336,-415.5 336,-385.5 46,-385.5"/>
<text text-anchor="start" x="53" y="-396.9" font-family="Arial" font-size="14.00" fill="#000000">created_at </text>
<text text-anchor="start" x="123.028" y="-396.9" font-family="Arial" font-size="14.00" fill="#666666">[timestamp(6) without time zone]</text>
<polygon fill="none" stroke="#000000" points="46,-355.5 46,-385.5 336,-385.5 336,-355.5 46,-355.5"/>
<text text-anchor="start" x="52.9117" y="-366.9" font-family="Arial" font-size="14.00" fill="#000000">updated_at </text>
<text text-anchor="start" x="126.8443" y="-366.9" font-family="Arial" font-size="14.00" fill="#666666">[timestamp(6) without time zone]</text>
</g>
<!-- public.posts&#45;&gt;public.users -->
<g id="edge1" class="edge">
<title>public.posts:user_id&#45;&gt;public.users:id</title>
<path fill="none" stroke="#000000" d="M345.7656,-427.6924C391.3385,-400.2266 388.0833,-180.5 336,-180.5"/>
<polygon fill="#000000" stroke="#000000" points="345.6107,-427.7369 334.7566,-426.1752 340.8053,-429.1184 336,-430.5 336,-430.5 336,-430.5 340.8053,-429.1184 337.2434,-434.8248 345.6107,-427.7369 345.6107,-427.7369"/>
<text text-anchor="start" x="343.3345" y="-440.5" font-family="Arial" font-size="10.00" fill="#000000">FOREIGN KEY (user_id) REFERENCES users(id)</text>
</g>
</g>
</svg>
